<svg width="50" height="50" viewBox="0 0 50 50" fill="none" xmlns="http://www.w3.org/2000/svg">
<path d="M25.0016 40C26.6939 40 28.0785 38.6154 28.0785 36.9231H21.9247C21.9247 38.6154 23.2939 40 25.0016 40ZM34.2324 30.7692V23.0769C34.2324 18.3538 31.7093 14.4 27.3093 13.3538V12.3077C27.3093 11.0308 26.2785 10 25.0016 10C23.7247 10 22.6939 11.0308 22.6939 12.3077V13.3538C18.2785 14.4 15.7708 18.3385 15.7708 23.0769V30.7692L13.7862 32.7538C12.817 33.7231 13.4939 35.3846 14.8631 35.3846H35.1247C36.4939 35.3846 37.1862 33.7231 36.217 32.7538L34.2324 30.7692Z" fill="black"/>
<circle cx="32.5" cy="32.5" r="7.5" fill="#E28D62"/>
</svg>
