<svg viewBox="0 0 50 50" fill="none" xmlns="http://www.w3.org/2000/svg">
    <path d="M25.0021 40C26.6944 40 28.079 38.6154 28.079 36.9231H21.9251C21.9251 38.6154 23.2944 40 25.0021 40ZM34.2328 30.7692V23.0769C34.2328 18.3538 31.7098 14.4 27.3098 13.3538V12.3077C27.3098 11.0308 26.279 10 25.0021 10C23.7251 10 22.6944 11.0308 22.6944 12.3077V13.3538C18.279 14.4 15.7713 18.3385 15.7713 23.0769V30.7692L13.7867 32.7538C12.8175 33.7231 13.4944 35.3846 14.8636 35.3846H35.1251C36.4944 35.3846 37.1867 33.7231 36.2175 32.7538L34.2328 30.7692Z" fill="black"/>
</svg>
