<svg viewBox="0 0 32 32" fill="none" xmlns="http://www.w3.org/2000/svg">
    <g id="Cash Cow">
        <path id="Cashcow Coin" d="M5.3934 26.6066C-0.464466 20.7487 -0.464466 11.2513 5.3934 5.3934C11.2513 -0.464466 20.7487 -0.464466 26.6066 5.3934C32.4645 11.2513 32.4645 20.7487 26.6066 26.6066C20.7487 32.4645 11.2513 32.4645 5.3934 26.6066Z" fill="url(#paint0_linear_183_3700)"/>
        <g id="Subtract" filter="url(#filter0_d_183_3700)">
            <path fill-rule="evenodd" clip-rule="evenodd" d="M5.3934 5.3934C-0.464466 11.2513 -0.464466 20.7487 5.3934 26.6066C11.2513 32.4645 20.7487 32.4645 26.6066 26.6066C32.4645 20.7487 32.4645 11.2513 26.6066 5.3934C20.7487 -0.464466 11.2513 -0.464466 5.3934 5.3934ZM6.45429 6.45406C1.18221 11.7261 1.18221 20.2739 6.45429 25.5459C11.7264 30.818 20.2741 30.818 25.5462 25.5459C30.8182 20.2739 30.8182 11.7261 25.5462 6.45406C20.2741 1.18198 11.7264 1.18198 6.45429 6.45406Z" fill="url(#paint1_linear_183_3700)"/>
        </g>
        <g id="image 1" filter="url(#filter1_di_183_3700)">
            <path d="M14.151 9.53454C14.363 9.46369 15.4763 9.18616 16.0064 9.05625C16.3911 9.05625 17.3053 9.3478 17.8447 9.53454C18.2763 9.68394 19.1252 9.82771 19.4957 9.88092L19.6748 10.0051C21.2887 10.0051 22.2374 8.00171 22.51 7C23.5112 9.39636 21.4775 10.8768 20.3355 11.3175C20.1662 11.7775 20.497 12.1437 20.6835 12.2693L21.9794 11.0791C22.1067 10.8865 22.2652 10.7807 22.3465 10.7426C23.9549 9.98852 25.9722 10.7426 25.9995 11.3175C26.0213 11.7775 25.318 12.663 24.9636 13.0482C24.6637 13.3473 23.9004 14.0175 23.2461 14.3061C22.4282 14.6668 21.6003 14.4167 21.2586 14.4167C20.9852 14.4167 20.5293 14.7052 20.3355 14.8494L19.5308 20.5473C20.0563 21.9112 19.5965 23.1643 19.3008 23.6204C18.7096 23.6204 18.3309 23.6733 17.7101 24.3936C17.0893 25.1139 15.068 25.2858 14.3727 24.3936C13.8165 23.6798 13.0656 23.5807 12.7597 23.6204C11.9883 22.8035 12.2405 21.2313 12.463 20.5473L11.5713 14.8494C11.3612 14.6884 10.8787 14.3765 10.6303 14.4167C10.3198 14.4671 9.48229 14.4872 8.81417 14.3061C8.27969 14.1612 7.41836 13.4071 7.0545 13.0482C6.71888 12.7128 6.03822 11.8971 6.00058 11.3175C5.95353 10.593 8.76904 10.0051 9.65724 10.7426C10.3678 11.3325 11.0767 12.0062 11.3423 12.2693C11.3586 12.2854 11.3568 12.2846 11.3838 12.2693C11.8088 12.0279 11.7452 11.4748 11.6602 11.2284C8.94394 10.2579 9.04892 8.01182 9.4649 7C9.60372 7.43339 10.0206 8.39779 10.386 8.86901C10.7515 9.34023 11.8562 9.82277 12.3629 10.0051L12.4726 9.88092C13.2471 9.91542 13.8859 9.62312 14.151 9.53454Z" fill="black" fill-opacity="0.35" shape-rendering="crispEdges"/>
        </g>
    </g>
    <defs>
        <filter id="filter0_d_183_3700" x="0" y="0" width="32" height="32" filterUnits="userSpaceOnUse" color-interpolation-filters="sRGB">
            <feFlood flood-opacity="0" result="BackgroundImageFix" />
            <feColorMatrix in="SourceAlpha" type="matrix" values="0 0 0 0 0 0 0 0 0 0 0 0 0 0 0 0 0 0 127 0" result="hardAlpha" />
            <feOffset />
            <feGaussianBlur stdDeviation="0.5" />
            <feComposite in2="hardAlpha" operator="out" />
            <feColorMatrix type="matrix" values="0 0 0 0 0 0 0 0 0 0 0 0 0 0 0 0 0 0 1 0" />
            <feBlend mode="normal" in2="BackgroundImageFix" result="effect1_dropShadow_183_3700" />
            <feBlend mode="normal" in="SourceGraphic" in2="effect1_dropShadow_183_3700" result="shape" />
        </filter>
        <filter id="filter1_di_183_3700" x="2" y="7" width="28" height="26" filterUnits="userSpaceOnUse" color-interpolation-filters="sRGB">
            <feFlood flood-opacity="0" result="BackgroundImageFix" />
            <feColorMatrix in="SourceAlpha" type="matrix" values="0 0 0 0 0 0 0 0 0 0 0 0 0 0 0 0 0 0 127 0" result="hardAlpha" />
            <feOffset dy="4" />
            <feGaussianBlur stdDeviation="2" />
            <feComposite in2="hardAlpha" operator="out" />
            <feColorMatrix type="matrix" values="0 0 0 0 0 0 0 0 0 0 0 0 0 0 0 0 0 0 0.25 0" />
            <feBlend mode="normal" in2="BackgroundImageFix" result="effect1_dropShadow_183_3700" />
            <feBlend mode="normal" in="SourceGraphic" in2="effect1_dropShadow_183_3700" result="shape" />
            <feColorMatrix in="SourceAlpha" type="matrix" values="0 0 0 0 0 0 0 0 0 0 0 0 0 0 0 0 0 0 127 0" result="hardAlpha" />
            <feOffset />
            <feGaussianBlur stdDeviation="0.15" />
            <feComposite in2="hardAlpha" operator="arithmetic" k2="-1" k3="1" />
            <feColorMatrix type="matrix" values="0 0 0 0 0 0 0 0 0 0 0 0 0 0 0 0 0 0 1 0" />
            <feBlend mode="normal" in2="shape" result="effect2_innerShadow_183_3700" />
        </filter>
        <linearGradient id="paint0_linear_183_3700" x1="26.6068" y1="26.6066" x2="5.39357" y2="5.3934" gradientUnits="userSpaceOnUse">
            <stop stop-color="#E3B75C"/>
            <stop offset="0.239583" stop-color="#FFFB9A"/>
            <stop offset="0.510417" stop-color="#EABE63"/>
            <stop offset="0.776042" stop-color="#F3E083"/>
            <stop offset="1" stop-color="#FDFD9D"/>
        </linearGradient>
        <linearGradient id="paint1_linear_183_3700" x1="26.6068" y1="26.6066" x2="5.39357" y2="5.3934" gradientUnits="userSpaceOnUse">
            <stop stop-color="#E3B75C"/>
            <stop offset="0.239583" stop-color="#FFFB9A"/>
            <stop offset="0.510417" stop-color="#EABE63"/>
            <stop offset="0.776042" stop-color="#F3E083"/>
            <stop offset="1" stop-color="#FDFD9D"/>
        </linearGradient>
    </defs>
</svg>
