<svg viewBox="0 0 30 30" fill="none" xmlns="http://www.w3.org/2000/svg">
    <path fill-rule="evenodd" clip-rule="evenodd" d="M7.77778 6.66667H18.8889C19.5025 6.66667 20 7.16413 20 7.77778V18.8889C20 19.5025 19.5025 20 18.8889 20H7.77778C7.16413 20 6.66667 19.5025 6.66667 18.8889V7.77778C6.66667 7.16413 7.16413 6.66667 7.77778 6.66667ZM5 7.77778C5 6.24365 6.24365 5 7.77778 5H18.8889C20.423 5 21.6667 6.24365 21.6667 7.77778V8.33333H22.2222C23.7563 8.33333 25 9.57699 25 11.1111V22.2222C25 23.7563 23.7563 25 22.2222 25H11.1111C9.57699 25 8.33333 23.7563 8.33333 22.2222V21.6667H7.77778C6.24365 21.6667 5 20.423 5 18.8889V7.77778ZM10 21.6667V22.2222C10 22.8359 10.4975 23.3333 11.1111 23.3333H22.2222C22.8359 23.3333 23.3333 22.8359 23.3333 22.2222V11.1111C23.3333 10.4975 22.8359 10 22.2222 10H21.6667V18.8889C21.6667 20.423 20.423 21.6667 18.8889 21.6667H10Z" fill="black"/>
</svg>
