<svg viewBox="0 0 30 30" fill="none" xmlns="http://www.w3.org/2000/svg">
    <path d="M16.5 15.508L24.0955 7.93822C24.4128 7.61791 24.4128 7.099 24.0955 6.77868C23.7838 6.45264 23.269 6.44285 22.9453 6.7568L15.3498 14.3266L7.85189 6.7568C7.69817 6.59288 7.48428 6.5 7.26052 6.5C7.03676 6.5 6.82287 6.59288 6.66915 6.7568C6.3878 7.06628 6.3878 7.54123 6.66915 7.85071L14.167 15.4096L6.5715 22.9685C6.25416 23.2888 6.25416 23.8077 6.5715 24.128C6.72257 24.284 6.93034 24.371 7.14659 24.3687C7.367 24.3867 7.58551 24.3159 7.75423 24.1718L15.3498 16.602L22.9453 24.2593C23.0964 24.4153 23.3042 24.5022 23.5204 24.5C23.7364 24.501 23.9437 24.4142 24.0955 24.2593C24.4128 23.939 24.4128 23.4201 24.0955 23.0998L16.5 15.508Z" fill="black"/>
</svg>
