<svg viewBox="0 0 30 30" fill="none" xmlns="http://www.w3.org/2000/svg">
    <path d="M15.2803 12.4543V17.8762H22.8148C22.4839 19.6198 21.4911 21.0962 20.002 22.0889L24.5456 25.6144C27.1929 23.1708 28.7202 19.5817 28.7202 15.3181C28.7202 14.3254 28.6311 13.3708 28.4656 12.4545L15.2803 12.4543Z" fill="#4285F4"/>
    <path d="M7.43382 17.6648L6.40907 18.4492L2.78174 21.2746C5.08536 25.8437 9.80683 29.0001 15.2795 29.0001C19.0594 29.0001 22.2284 27.7528 24.5449 25.6147L20.0013 22.0892C18.754 22.9292 17.1631 23.4383 15.2795 23.4383C11.6395 23.4383 8.5469 20.982 7.43954 17.6729L7.43382 17.6648Z" fill="#34A853"/>
    <path d="M2.78198 8.72534C1.82749 10.6089 1.28027 12.7344 1.28027 14.9998C1.28027 17.2652 1.82749 19.3907 2.78198 21.2742C2.78198 21.2869 7.44023 17.6597 7.44023 17.6597C7.16024 16.8197 6.99474 15.9289 6.99474 14.9996C6.99474 14.0704 7.16024 13.1796 7.44023 12.3396L2.78198 8.72534Z" fill="#FBBC05"/>
    <path d="M15.2798 6.57453C17.3416 6.57453 19.1743 7.28724 20.638 8.6618L24.647 4.65277C22.2161 2.38736 19.0598 1 15.2798 1C9.80711 1 5.08536 4.14363 2.78174 8.72545L7.43985 12.34C8.54705 9.03087 11.6398 6.57453 15.2798 6.57453Z" fill="#EA4335"/>
</svg>
