<svg viewBox="0 0 30 30" fill="none" xmlns="http://www.w3.org/2000/svg">
    <path fill-rule="evenodd" clip-rule="evenodd" d="M15.0001 6.87646C12.4836 4.37442 8.40387 4.37451 5.88751 6.87675C3.37115 9.37899 3.37072 13.4362 5.88688 15.9386L15.0001 25L24.113 15.9382C26.6291 13.4359 26.629 9.37902 24.1127 6.8768C21.5963 4.37457 17.5166 4.37446 15.0001 6.87646ZM22.7027 14.5201C22.7027 14.5201 22.7027 14.5201 22.7028 14.52C24.4325 12.7996 24.4324 10.0153 22.7024 8.29498C20.9662 6.56847 18.1466 6.5684 16.4102 8.29475L15.0001 9.69678L13.59 8.29474C11.8536 6.56835 9.034 6.56842 7.29774 8.29494C5.56762 10.0154 5.56745 12.8001 7.29706 14.5203C7.2971 14.5204 7.29715 14.5204 7.2972 14.5205L15.0001 22.1795L22.7027 14.5201Z" fill="black"/>
</svg>
