<svg width="50" height="50" viewBox="0 0 50 50" fill="none" xmlns="http://www.w3.org/2000/svg">
    <path d="M31.0138 10H11.3327C10.2941 10 10.0799 10.6834 10.1027 11.0251V36.3098C10.1027 37.0752 10.9227 37.4032 11.3327 37.4715C15.0685 38.3144 22.786 40 23.7701 40C24.7541 40 25.1824 39.2711 25.2735 38.9066V37.3955H31.2967C32.1293 37.3955 32.4592 36.58 32.5201 36.1722V28.6131C32.5201 27.6783 32.1121 27.3131 31.1115 27.3131C30.111 27.3131 29.7996 28.1627 29.8178 28.6131V34.7115H25.2735V15.1253C25.2735 14.1959 24.7723 13.8725 24.5218 13.8269L20.8999 12.6652H29.442V19.0889C29.442 19.6425 29.9204 20.6606 31.0138 20.6606C32.1072 20.6606 32.5172 19.6128 32.5856 19.0889V11.5718C32.5856 10.4784 31.5377 10.0683 31.0138 10Z" fill="black"/>
    <path d="M35.4098 22.3564H28.5423C28.1431 22.4526 27.3448 22.8787 27.3448 23.8136C27.3448 24.7485 28.1431 25.0015 28.5423 25.0111H35.4098C34.9877 25.4162 34.0577 26.3122 33.7141 26.6558C33.2846 27.0853 33.0863 27.6702 33.7805 28.4407C34.3763 29.1019 35.3305 28.8575 35.6744 28.6131L39.4784 24.8091C40.2402 24.0473 39.7958 23.1451 39.4784 22.7892L35.4098 18.7206C35.1416 18.4909 34.427 18.2097 33.7141 18.9226C33.0011 19.6355 33.417 20.3783 33.7141 20.6606L35.4098 22.3564Z" fill="black"/>
</svg>
