<svg width="31" height="31" viewBox="0 0 31 31" fill="none" xmlns="http://www.w3.org/2000/svg">
    <path fill-rule="evenodd" clip-rule="evenodd" d="M24.9173 18.6997L25.7089 24.1997C25.7661 24.6231 25.6374 25.0507 25.3558 25.3721C25.0743 25.6936 24.6675 25.8776 24.2402 25.8768H24.0214L18.5214 25.0851C17.7759 24.9823 17.0845 24.6384 16.5527 24.1059L6.40687 13.9497C4.43305 11.906 4.46128 8.65756 6.47031 6.64853C8.47934 4.6395 11.7278 4.61128 13.7714 6.58509L23.9381 16.7309C24.4706 17.2627 24.8145 17.9541 24.9173 18.6997ZM17.709 23.0018C17.9971 23.2784 18.3586 23.4665 18.7506 23.5434L24.1777 24.2622L23.4173 18.8768C23.3403 18.4848 23.1523 18.1232 22.8756 17.8351L12.7194 7.68926C12.0351 6.98673 11.0959 6.59048 10.1152 6.59048C9.13447 6.59048 8.19535 6.98673 7.51103 7.68926C6.82466 8.37163 6.43872 9.29953 6.43872 10.2674C6.43872 11.2352 6.82466 12.1631 7.51103 12.8455L17.709 23.0018Z" fill="black"/>
    <path d="M10.6048 9.67884C10.297 9.39201 9.81727 9.40047 9.51976 9.69798C9.22225 9.9955 9.21378 10.4752 9.50062 10.783L13.886 15.1684C14.1911 15.4731 14.6852 15.4731 14.9902 15.1684C15.2948 14.8634 15.2948 14.3693 14.9902 14.0643L10.6048 9.67884Z" fill="black"/>
</svg>
