<svg width="50" height="50" viewBox="0 0 50 50" fill="none" xmlns="http://www.w3.org/2000/svg">
    <path fill-rule="evenodd" clip-rule="evenodd" d="M25 50C38.8071 50 50 38.8071 50 25C50 11.1929 38.8071 0 25 0C11.1929 0 0 11.1929 0 25C0 38.8071 11.1929 50 25 50ZM23.6134 16.4196C24.453 15.86 25.5468 15.86 26.3865 16.4196L33.888 21.4196C35.0369 22.1854 35.3475 23.7375 34.5817 24.8864C33.8159 26.0353 32.2638 26.3459 31.1149 25.5801L24.9999 21.5043L18.8849 25.5801C17.736 26.3459 16.1838 26.0353 15.418 24.8864C14.6523 23.7375 14.9629 22.1854 16.1118 21.4196L23.6134 16.4196ZM23.6134 24.4196C24.453 23.86 25.5468 23.86 26.3865 24.4196L33.888 29.4196C35.0369 30.1854 35.3475 31.7375 34.5817 32.8864C33.8159 34.0353 32.2638 34.3459 31.1149 33.5801L24.9999 29.5043L18.8849 33.5801C17.736 34.3459 16.1838 34.0353 15.418 32.8864C14.6523 31.7375 14.9629 30.1854 16.1118 29.4196L23.6134 24.4196Z" fill="#0045BD"/>
</svg>
