<svg viewBox="0 0 50 50" fill="none" xmlns="http://www.w3.org/2000/svg">
    <path fill-rule="evenodd" clip-rule="evenodd" d="M28.4103 20.9232C28.4103 24.9425 25.1203 28.2466 21.0053 28.2466C16.8903 28.2466 13.6002 24.9425 13.6002 20.9232C13.6002 16.9038 16.8903 13.5998 21.0053 13.5998C25.1203 13.5998 28.4103 16.9038 28.4103 20.9232ZM27.2729 29.9031C25.4943 31.1284 23.3343 31.8466 21.0053 31.8466C14.9274 31.8466 10.0002 26.956 10.0002 20.9232C10.0002 14.8903 14.9274 9.99976 21.0053 9.99976C27.0832 9.99976 32.0103 14.8903 32.0103 20.9232C32.0103 23.3494 31.2133 25.591 29.8651 27.4039L39.4706 36.9382C40.1762 37.6385 40.1762 38.774 39.4706 39.4743C38.7651 40.1746 37.6211 40.1746 36.9156 39.4743L27.2729 29.9031Z" fill="black"/>
</svg>
