<svg viewBox="0 0 30 30" fill="none" xmlns="http://www.w3.org/2000/svg">
    <path fill-rule="evenodd" clip-rule="evenodd" d="M23.5 9C23.5 10.3807 22.3807 11.5 21 11.5C19.6193 11.5 18.5 10.3807 18.5 9C18.5 7.61929 19.6193 6.5 21 6.5C22.3807 6.5 23.5 7.61929 23.5 9ZM25 9C25 11.2091 23.2091 13 21 13C19.9329 13 18.9634 12.5822 18.2462 11.9012L12.8662 13.9704C12.9535 14.2989 13 14.644 13 15C13 15.356 12.9535 15.7011 12.8662 16.0296L18.2462 18.0988C18.9634 17.4178 19.9329 17 21 17C23.2091 17 25 18.7909 25 21C25 23.2091 23.2091 25 21 25C18.7909 25 17 23.2091 17 21C17 20.4161 17.1251 19.8614 17.35 19.3613L12.2116 17.3849C11.4825 18.3651 10.3154 19 9 19C6.79086 19 5 17.2091 5 15C5 12.7909 6.79086 11 9 11C10.3154 11 11.4825 11.6349 12.2116 12.6151L17.35 10.6387C17.1251 10.1386 17 9.58392 17 9C17 6.79086 18.7909 5 21 5C23.2091 5 25 6.79086 25 9ZM23.5 21C23.5 22.3807 22.3807 23.5 21 23.5C19.6193 23.5 18.5 22.3807 18.5 21C18.5 19.6193 19.6193 18.5 21 18.5C22.3807 18.5 23.5 19.6193 23.5 21ZM9 17.5C10.3807 17.5 11.5 16.3807 11.5 15C11.5 13.6193 10.3807 12.5 9 12.5C7.61929 12.5 6.5 13.6193 6.5 15C6.5 16.3807 7.61929 17.5 9 17.5Z" fill="black"/>
</svg>
