<svg viewBox="0 0 1080 150" fill="none" xmlns="http://www.w3.org/2000/svg">
    <path d="M134.999 97.155C126.999 124.055 102.299 150 67.4995 150C32.6997 150 7.99992 124.055 0 97.155V0H134.999V97.155Z" fill="#FDB757"/>
    <path d="M404.997 97.155C396.997 124.055 372.297 150 337.498 150C302.698 150 277.998 124.055 269.998 97.155V0H404.997V97.155Z" fill="#FDB757"/>
    <path d="M674.999 97.155C666.999 124.055 642.299 150 607.5 150C572.7 150 548 124.055 540 97.155V0H674.999V97.155Z" fill="#FDB757"/>
    <path d="M944.997 97.155C936.997 124.055 912.297 150 877.498 150C842.698 150 817.998 124.055 809.998 97.155V0H944.997V97.155Z" fill="#FDB757"/>
    <path d="M1080 97.155C1072 124.055 1047.3 150 1012.5 150C977.701 150 953.001 124.055 945.001 97.155V0H1080V97.155Z" fill="#0045BD"/>
    <path d="M809.994 97.155C801.994 124.055 777.294 150 742.495 150C707.695 150 682.995 124.055 674.995 97.155V0H809.994V97.155Z" fill="#0045BD"/>
    <path d="M539.996 97.155C531.996 124.055 507.296 150 472.497 150C437.697 150 412.997 124.055 404.997 97.155V0H539.996V97.155Z" fill="#0045BD"/>
    <path d="M269.998 97.155C261.998 124.055 237.298 150 202.499 150C167.699 150 142.999 124.055 134.999 97.155V0H269.998V97.155Z" fill="#0045BD"/>
    <rect x="390" y="45" width="300" height="60" rx="20" fill="white"/>
</svg>
