<svg viewBox="0 0 1024 1024" fill="none" xmlns="http://www.w3.org/2000/svg">
    <path d="M748.964 423.5C748.964 433.81 743.782 444.643 732.25 455.548C720.697 466.474 703.444 476.773 681.294 485.633C637.051 503.33 575.243 514.5 506.464 514.5C437.684 514.5 375.877 503.33 331.633 485.633C309.484 476.773 292.23 466.474 280.678 455.548C269.146 444.643 263.964 433.81 263.964 423.5C263.964 413.19 269.146 402.357 280.678 391.452C292.23 380.526 309.484 370.227 331.633 361.367C375.877 343.67 437.684 332.5 506.464 332.5C575.243 332.5 637.051 343.67 681.294 361.367C703.444 370.227 720.697 380.526 732.25 391.452C743.782 402.357 748.964 413.19 748.964 423.5Z" fill="#F2E1AB" stroke="black" stroke-width="20"/>
    <ellipse cx="506.464" cy="398.521" rx="193.855" ry="69.5054" fill="#B35829"/>
    <path d="M748.964 357.5C748.964 367.81 743.782 378.643 732.25 389.548C720.697 400.474 703.444 410.773 681.294 419.633C637.051 437.33 575.243 448.5 506.464 448.5C437.684 448.5 375.877 437.33 331.633 419.633C309.484 410.773 292.23 400.474 280.678 389.548C269.146 378.643 263.964 367.81 263.964 357.5C263.964 347.19 269.146 336.357 280.678 325.452C292.23 314.526 309.484 304.227 331.633 295.367C375.877 277.67 437.684 266.5 506.464 266.5C575.243 266.5 637.051 277.67 681.294 295.367C703.444 304.227 720.697 314.526 732.25 325.452C743.782 336.357 748.964 347.19 748.964 357.5Z" fill="#F2E1AB" stroke="black" stroke-width="20"/>
    <ellipse cx="506.464" cy="332.521" rx="193.855" ry="69.5054" fill="#B35829"/>
    <path d="M747.964 292.5C747.964 302.81 742.782 313.643 731.25 324.548C719.697 335.474 702.444 345.773 680.294 354.633C636.051 372.33 574.243 383.5 505.464 383.5C436.684 383.5 374.877 372.33 330.633 354.633C308.484 345.773 291.23 335.474 279.678 324.548C268.146 313.643 262.964 302.81 262.964 292.5C262.964 282.19 268.146 271.357 279.678 260.452C291.23 249.526 308.484 239.227 330.633 230.367C374.877 212.67 436.684 201.5 505.464 201.5C574.243 201.5 636.051 212.67 680.294 230.367C702.444 239.227 719.697 249.526 731.25 260.452C742.782 271.357 747.964 282.19 747.964 292.5Z" fill="#F2E1AB" stroke="black" stroke-width="20"/>
    <ellipse cx="505.464" cy="267.521" rx="193.855" ry="69.5054" fill="#B35829"/>
    <path d="M299.023 257.193C299.023 197.082 433.909 179.596 501.352 178.366C640.617 178.366 706.746 222.159 708.498 267.335C709.899 303.475 678.134 317.428 662.076 319.886C662.368 354.767 662.777 426.556 662.076 434.669C661.2 444.811 654.193 455.874 635.799 457.718C621.085 459.193 613.026 442.967 610.837 434.669V400.096C595.421 400.096 591.567 386.574 591.567 379.813C592.443 374.589 593.67 357.686 591.567 331.872C589.465 306.057 566.167 297.759 554.78 296.837H387.925C365.853 296.837 358.875 316.198 358.145 325.879V383.962C357.707 390.723 353.59 404.153 340.627 403.784C327.664 403.415 324.716 390.416 324.861 383.962V312.511C303.14 312.511 298.585 275.632 299.023 257.193Z" fill="black" fill-opacity="0.2"/>
    <path d="M272.996 236C272.996 170.8 426.996 151.833 503.996 150.5C662.996 150.5 738.496 198 740.496 247C742.096 286.2 705.829 301.333 687.496 304C687.829 341.833 688.296 419.7 687.496 428.5C686.496 439.5 678.496 451.5 657.496 453.5C640.696 455.1 631.496 437.5 628.996 428.5V391C611.396 391 606.996 376.333 606.996 369C607.996 363.333 609.396 345 606.996 317C604.596 289 577.996 280 564.996 279H374.496C349.296 279 341.329 300 340.496 310.5V373.5C339.996 380.833 335.296 395.4 320.496 395C305.696 394.6 302.329 380.5 302.496 373.5V296C277.696 296 272.496 256 272.996 236Z" fill="#FDA740" stroke="black" stroke-width="20"/>
    <path d="M683.464 215C683.464 240.5 621.464 244.5 499.464 244.5C411.927 244.5 325.964 239.5 325.964 215C325.964 194.5 411.927 172.5 499.464 172.5C587.001 172.5 683.464 193.5 683.464 215Z" fill="#FDB757"/>
    <path d="M243.964 502.5C243.964 506.163 242.036 510.192 237.512 513.632C232.981 517.079 226.279 519.5 218.464 519.5C210.648 519.5 203.947 517.079 199.415 513.632C194.891 510.192 192.964 506.163 192.964 502.5C192.964 498.837 194.891 494.808 199.415 491.368C203.947 487.921 210.648 485.5 218.464 485.5C226.279 485.5 232.981 487.921 237.512 491.368C242.036 494.808 243.964 498.837 243.964 502.5Z" fill="#FDA740" stroke="black" stroke-width="20"/>
    <path d="M713.964 502.5C713.964 511.681 711.63 518.46 707.083 523.004C702.539 527.544 694.138 531.5 678.464 531.5C662.789 531.5 654.388 527.544 649.845 523.004C645.298 518.46 642.964 511.681 642.964 502.5C642.964 487.874 657.356 473.5 678.464 473.5C699.572 473.5 713.964 487.874 713.964 502.5Z" fill="#FDA740" stroke="black" stroke-width="20"/>
    <path d="M452 143.5C452 143.5 488.537 102.5 495 102.5C501.464 102.5 541.881 143.5 541.881 143.5C557.5 158 553.255 183.298 541.881 196C528 211.5 468.3 214 449.5 196C430.7 178 444.167 151.5 452 143.5Z" fill="white" stroke="black" stroke-width="20"/>
    <rect x="507.407" y="133.5" width="37" height="11" rx="5.5" transform="rotate(42.584 507.407 133.5)" fill="#D9D9D9"/>
    <rect x="533.962" y="155.5" width="22.6732" height="11" rx="5.5" transform="rotate(88.9748 533.962 155.5)" fill="#D9D9D9"/>
    <path d="M684.964 500.944C684.964 506.611 681.148 507.5 673.641 507.5C668.254 507.5 662.964 506.389 662.964 500.944C662.964 496.389 668.254 491.5 673.641 491.5C679.028 491.5 684.964 496.167 684.964 500.944Z" fill="#FDB757"/>
    <path d="M219.964 501.451C219.964 503.222 217.709 503.5 213.273 503.5C210.09 503.5 206.964 503.153 206.964 501.451C206.964 500.028 210.09 498.5 213.273 498.5C216.456 498.5 219.964 499.958 219.964 501.451Z" fill="#FDB757"/>
    <path d="M304.696 734.1C297.496 736.1 289.363 737.1 280.296 737.1C271.229 737.1 262.296 735.833 253.496 733.3C250.963 732.5 248.096 731.367 244.896 729.9C241.829 728.3 238.696 726.5 235.496 724.5C232.296 722.5 229.163 720.367 226.096 718.1C223.163 715.7 220.629 713.233 218.496 710.7L242.096 685.1C252.096 692.167 260.963 697.167 268.696 700.1C276.563 703.033 283.363 703.767 289.096 702.3C291.629 701.767 293.629 700.7 295.096 699.1C296.696 697.367 297.696 695.433 298.096 693.3C298.496 691.3 298.229 689.3 297.296 687.3C296.363 685.167 294.829 683.367 292.696 681.9C290.029 680.167 287.363 678.7 284.696 677.5C282.163 676.167 279.363 674.833 276.296 673.5C273.229 672.3 269.896 670.9 266.296 669.3C262.696 667.567 258.696 665.5 254.296 663.1C241.496 656.033 233.363 647.633 229.896 637.9C226.429 628.167 226.896 618.967 231.296 610.3C235.696 600.833 242.429 593.633 251.496 588.7C260.696 583.767 271.029 581.3 282.496 581.3C293.696 581.3 303.896 583.3 313.096 587.3C322.429 591.3 330.363 596.767 336.896 603.7L313.696 629.5C308.763 625.367 303.029 621.967 296.496 619.3C290.096 616.5 284.496 615.1 279.696 615.1C276.896 615.1 274.363 615.967 272.096 617.7C269.829 619.3 268.696 621.7 268.696 624.9C268.696 628.1 270.896 631.3 275.296 634.5C279.696 637.567 287.296 641.7 298.096 646.9C311.696 653.167 321.363 659.5 327.096 665.9C332.963 672.3 336.429 679.233 337.496 686.7C339.229 697.5 337.296 707.233 331.696 715.9C326.096 724.567 317.096 730.633 304.696 734.1ZM337.207 584.9H450.207V617.7H411.007V733.3H375.407V617.7H337.207V584.9ZM567.426 733.3H528.626L518.026 706.3H472.826L463.026 733.3H424.426L479.426 584.9H510.826L567.426 733.3ZM495.826 628.3L482.426 674.3H508.426L495.826 628.3ZM557.488 659.3C557.488 642.767 560.488 628.767 566.488 617.3C572.622 605.7 581.155 596.5 592.088 589.7C595.288 587.7 599.088 586.1 603.488 584.9C608.022 583.567 612.622 582.633 617.288 582.1C622.088 581.567 626.755 581.367 631.288 581.5C635.955 581.5 640.222 581.9 644.088 582.7C650.488 584.033 656.888 586.633 663.288 590.5C669.822 594.367 676.488 600.033 683.288 607.5L661.688 629.9C655.155 622.7 648.022 618.167 640.288 616.3C632.688 614.3 625.488 614.433 618.688 616.7C610.288 619.5 603.755 624.5 599.088 631.7C594.555 638.767 592.288 647.967 592.288 659.3C592.288 665.167 593.022 670.567 594.488 675.5C596.088 680.3 598.155 684.567 600.688 688.3C603.222 691.9 606.088 694.9 609.288 697.3C612.488 699.7 615.688 701.3 618.888 702.1C622.488 703.033 626.222 703.5 630.088 703.5C634.088 703.367 638.022 702.767 641.888 701.7C645.622 700.633 649.222 699.033 652.688 696.9C656.155 694.767 659.155 691.967 661.688 688.5L683.288 711.3C676.755 718.9 670.288 724.633 663.888 728.5C657.488 732.367 650.888 734.9 644.088 736.1C640.222 736.9 635.955 737.367 631.288 737.5C626.755 737.5 622.088 737.233 617.288 736.7C612.622 736.167 608.022 735.3 603.488 734.1C599.088 732.767 595.288 731.1 592.088 729.1C581.155 722.3 572.622 713.167 566.488 701.7C560.488 690.233 557.488 676.1 557.488 659.3ZM719.52 703.3V733.3H684.52V584.9H719.52V651.1L766.92 584.9H805.72L761.32 647.9L807.32 733.3H769.32L738.32 677.9L719.52 703.3Z" fill="black"/>
    <path d="M241.688 903.3V754.9H352.888V786.9H277.488V815.9H317.288C324.488 815.9 330.354 815.833 334.888 815.7C339.554 815.433 344.288 814.967 349.088 814.3V845.3C344.554 846.5 338.754 847.233 331.688 847.5C324.754 847.633 318.488 847.7 312.888 847.7H277.488V903.3H241.688ZM423.008 903.3H360.008V754.9H395.608V871.1H427.608C431.208 871.1 434.474 871.1 437.408 871.1C440.341 870.967 443.008 870.767 445.408 870.5C447.941 870.367 450.274 870.167 452.408 869.9C454.674 869.633 457.008 869.3 459.408 868.9V900.5C455.008 901.7 449.208 902.5 442.008 902.9C434.941 903.167 428.608 903.3 423.008 903.3ZM538.397 907.1C527.197 907.1 517.197 905.3 508.397 901.7C499.597 898.1 492.197 892.967 486.197 886.3C480.064 879.633 475.397 871.5 472.197 861.9C469.13 852.167 467.597 841.3 467.597 829.3C467.597 817.3 469.13 806.5 472.197 796.9C475.397 787.3 480.064 779.167 486.197 772.5C492.197 765.833 499.597 760.7 508.397 757.1C517.197 753.367 527.197 751.5 538.397 751.5C549.597 751.5 559.597 753.367 568.397 757.1C577.33 760.7 584.864 765.833 590.997 772.5C597.13 779.167 601.797 787.3 604.997 796.9C608.33 806.5 609.997 817.3 609.997 829.3C609.997 841.3 608.33 852.167 604.997 861.9C601.797 871.5 597.13 879.633 590.997 886.3C584.864 892.967 577.33 898.1 568.397 901.7C559.597 905.3 549.597 907.1 538.397 907.1ZM538.797 873.1C549.197 873.1 557.664 869.167 564.197 861.3C570.73 853.433 573.997 842.767 573.997 829.3C573.997 823.033 573.064 817.233 571.197 811.9C569.464 806.567 567.064 801.9 563.997 797.9C560.93 794.033 557.197 791.033 552.797 788.9C548.53 786.633 543.864 785.5 538.797 785.5C533.597 785.5 528.797 786.633 524.397 788.9C520.13 791.033 516.464 794.033 513.397 797.9C510.33 801.9 507.93 806.567 506.197 811.9C504.464 817.233 503.597 823.033 503.597 829.3C503.597 842.767 506.797 853.433 513.197 861.3C519.73 869.167 528.264 873.1 538.797 873.1ZM722.875 754.9L742.075 857.7H742.675L750.275 754.9H787.275L766.675 903.3H726.275L704.275 799.5H702.875L680.675 903.3H642.275L619.675 754.9H656.675L664.475 857.7H665.075L684.075 754.9H722.875Z" fill="#FDA740"/>
</svg>
